<svg xmlns="http://www.w3.org/2000/svg" viewBox="10 -10 108 114" width="128" height="128">
  <defs>
    <radialGradient id="bulbGlow" cx="50%" cy="40%" r="50%">
      <stop offset="0%" style="stop-color:#f59e0b;stop-opacity:0.35" />
      <stop offset="100%" style="stop-color:#f59e0b;stop-opacity:0" />
    </radialGradient>
  </defs>

  <!-- Glow effect -->
  <circle cx="64" cy="40" r="50" fill="url(#bulbGlow)" />

  <!-- Bulb glass outline - light color for dark backgrounds -->
  <path d="M 40,68 C 32,58 30,44 33,34 C 38,20 50,12 64,12 C 78,12 90,20 95,34 C 98,44 96,58 88,68 L 85,73 L 43,73 Z"
        fill="none" stroke="#93c5fd" stroke-width="4.5" stroke-linejoin="round" />

  <!-- Filament as pi symbol -->
  <g transform="translate(64, 44)" fill="none" stroke="#f59e0b" stroke-width="3.5" stroke-linecap="round">
    <line x1="-14" y1="-11" x2="14" y2="-11" />
    <path d="M -7,-11 C -7,-3 -9,6 -11,14" />
    <line x1="7" y1="-11" x2="7" y2="14" />
  </g>

  <!-- Rays around bulb -->
  <g stroke="#f59e0b" stroke-width="2.5" stroke-linecap="round">
    <line x1="64" y1="-2" x2="64" y2="-9" />
    <line x1="38" y1="8" x2="32" y2="2" />
    <line x1="90" y1="8" x2="96" y2="2" />
    <line x1="22" y1="30" x2="14" y2="27" />
    <line x1="106" y1="30" x2="114" y2="27" />
  </g>

  <!-- Bulb base / screw -->
  <rect x="46" y="73" width="36" height="5" rx="2" fill="#93c5fd" />
  <rect x="49" y="80" width="30" height="4" rx="2" fill="#64748b" />
  <rect x="52" y="86" width="24" height="4" rx="2" fill="#93c5fd" />
  <path d="M 55,90 L 57,97 L 71,97 L 73,90" fill="#64748b" />
</svg>
