<svg xmlns="http://www.w3.org/2000/svg" viewBox="0 0 900 280" width="900" height="280">
  <!-- Labels -->
  <text x="112" y="20" text-anchor="middle" font-family="system-ui, sans-serif" font-size="12" font-weight="600" fill="#1e293b">A: Current</text>
  <text x="112" y="36" text-anchor="middle" font-family="system-ui, monospace" font-size="11" fill="#64748b">#f59e0b</text>

  <text x="337" y="20" text-anchor="middle" font-family="system-ui, sans-serif" font-size="12" font-weight="600" fill="#1e293b">B: Deep Amber</text>
  <text x="337" y="36" text-anchor="middle" font-family="system-ui, monospace" font-size="11" fill="#64748b">#d97706</text>

  <text x="562" y="20" text-anchor="middle" font-family="system-ui, sans-serif" font-size="12" font-weight="600" fill="#1e293b">C: Warm Gold</text>
  <text x="562" y="36" text-anchor="middle" font-family="system-ui, monospace" font-size="11" fill="#64748b">#ca8a04</text>

  <text x="787" y="20" text-anchor="middle" font-family="system-ui, sans-serif" font-size="12" font-weight="600" fill="#1e293b">D: Muted Honey</text>
  <text x="787" y="36" text-anchor="middle" font-family="system-ui, monospace" font-size="11" fill="#64748b">#b8860b</text>

  <!-- Theme context bar at top of each -->
  <!-- A: Current #f59e0b / #fbbf24 -->
  <g transform="translate(0, 44)">
    <!-- Dark bg context strip -->
    <rect x="12" y="0" width="200" height="8" rx="2" fill="#1e293b" />
    <rect x="12" y="0" width="60" height="8" rx="2" fill="#3b82f6" />
    <rect x="72" y="0" width="40" height="8" fill="#f59e0b" />

    <g transform="translate(112, 50)">
      <defs>
        <linearGradient id="glowA" x1="0%" y1="0%" x2="0%" y2="100%">
          <stop offset="0%" style="stop-color:#fbbf24;stop-opacity:0.3" />
          <stop offset="100%" style="stop-color:#fbbf24;stop-opacity:0" />
        </linearGradient>
      </defs>
      <circle cx="0" cy="0" r="50" fill="url(#glowA)" />
      <path d="M -26,18 C -34,8 -36,-6 -32,-16 C -28,-30 -14,-40 0,-40 C 14,-40 28,-30 32,-16 C 36,-6 34,8 26,18 L 22,24 L -22,24 Z"
            fill="none" stroke="#3b82f6" stroke-width="3.5" stroke-linejoin="round" />
      <g fill="none" stroke="#f59e0b" stroke-width="2.5" stroke-linecap="round">
        <line x1="-14" y1="-10" x2="14" y2="-10" />
        <path d="M -6,-10 C -6,-2 -8,6 -10,14" />
        <line x1="6" y1="-10" x2="6" y2="14" />
      </g>
      <g stroke="#fbbf24" stroke-width="1.5" stroke-linecap="round">
        <line x1="0" y1="-52" x2="0" y2="-58" />
        <line x1="-24" y1="-42" x2="-28" y2="-47" />
        <line x1="24" y1="-42" x2="28" y2="-47" />
        <line x1="-38" y1="-20" x2="-44" y2="-22" />
        <line x1="38" y1="-20" x2="44" y2="-22" />
      </g>
      <rect x="-18" y="24" width="36" height="5" rx="2" fill="#3b82f6" />
      <rect x="-15" y="31" width="30" height="4" rx="2" fill="#1e293b" />
      <rect x="-12" y="37" width="24" height="4" rx="2" fill="#3b82f6" />
      <path d="M -9,41 L -7,48 L 7,48 L 9,41" fill="#1e293b" />
    </g>
    <text x="112" y="120" text-anchor="middle" font-family="system-ui, sans-serif" font-size="16" font-weight="700" fill="#1e293b">Free Math Sheets</text>
  </g>

  <!-- B: Deep Amber #d97706 / #f59e0b -->
  <g transform="translate(225, 44)">
    <rect x="12" y="0" width="200" height="8" rx="2" fill="#1e293b" />
    <rect x="12" y="0" width="60" height="8" rx="2" fill="#3b82f6" />
    <rect x="72" y="0" width="40" height="8" fill="#d97706" />

    <g transform="translate(112, 50)">
      <defs>
        <linearGradient id="glowB" x1="0%" y1="0%" x2="0%" y2="100%">
          <stop offset="0%" style="stop-color:#f59e0b;stop-opacity:0.25" />
          <stop offset="100%" style="stop-color:#f59e0b;stop-opacity:0" />
        </linearGradient>
      </defs>
      <circle cx="0" cy="0" r="50" fill="url(#glowB)" />
      <path d="M -26,18 C -34,8 -36,-6 -32,-16 C -28,-30 -14,-40 0,-40 C 14,-40 28,-30 32,-16 C 36,-6 34,8 26,18 L 22,24 L -22,24 Z"
            fill="none" stroke="#3b82f6" stroke-width="3.5" stroke-linejoin="round" />
      <g fill="none" stroke="#d97706" stroke-width="2.5" stroke-linecap="round">
        <line x1="-14" y1="-10" x2="14" y2="-10" />
        <path d="M -6,-10 C -6,-2 -8,6 -10,14" />
        <line x1="6" y1="-10" x2="6" y2="14" />
      </g>
      <g stroke="#f59e0b" stroke-width="1.5" stroke-linecap="round">
        <line x1="0" y1="-52" x2="0" y2="-58" />
        <line x1="-24" y1="-42" x2="-28" y2="-47" />
        <line x1="24" y1="-42" x2="28" y2="-47" />
        <line x1="-38" y1="-20" x2="-44" y2="-22" />
        <line x1="38" y1="-20" x2="44" y2="-22" />
      </g>
      <rect x="-18" y="24" width="36" height="5" rx="2" fill="#3b82f6" />
      <rect x="-15" y="31" width="30" height="4" rx="2" fill="#1e293b" />
      <rect x="-12" y="37" width="24" height="4" rx="2" fill="#3b82f6" />
      <path d="M -9,41 L -7,48 L 7,48 L 9,41" fill="#1e293b" />
    </g>
    <text x="112" y="120" text-anchor="middle" font-family="system-ui, sans-serif" font-size="16" font-weight="700" fill="#1e293b">Free Math Sheets</text>
  </g>

  <!-- C: Warm Gold #ca8a04 / #eab308 -->
  <g transform="translate(450, 44)">
    <rect x="12" y="0" width="200" height="8" rx="2" fill="#1e293b" />
    <rect x="12" y="0" width="60" height="8" rx="2" fill="#3b82f6" />
    <rect x="72" y="0" width="40" height="8" fill="#ca8a04" />

    <g transform="translate(112, 50)">
      <defs>
        <linearGradient id="glowC" x1="0%" y1="0%" x2="0%" y2="100%">
          <stop offset="0%" style="stop-color:#eab308;stop-opacity:0.25" />
          <stop offset="100%" style="stop-color:#eab308;stop-opacity:0" />
        </linearGradient>
      </defs>
      <circle cx="0" cy="0" r="50" fill="url(#glowC)" />
      <path d="M -26,18 C -34,8 -36,-6 -32,-16 C -28,-30 -14,-40 0,-40 C 14,-40 28,-30 32,-16 C 36,-6 34,8 26,18 L 22,24 L -22,24 Z"
            fill="none" stroke="#3b82f6" stroke-width="3.5" stroke-linejoin="round" />
      <g fill="none" stroke="#ca8a04" stroke-width="2.5" stroke-linecap="round">
        <line x1="-14" y1="-10" x2="14" y2="-10" />
        <path d="M -6,-10 C -6,-2 -8,6 -10,14" />
        <line x1="6" y1="-10" x2="6" y2="14" />
      </g>
      <g stroke="#eab308" stroke-width="1.5" stroke-linecap="round">
        <line x1="0" y1="-52" x2="0" y2="-58" />
        <line x1="-24" y1="-42" x2="-28" y2="-47" />
        <line x1="24" y1="-42" x2="28" y2="-47" />
        <line x1="-38" y1="-20" x2="-44" y2="-22" />
        <line x1="38" y1="-20" x2="44" y2="-22" />
      </g>
      <rect x="-18" y="24" width="36" height="5" rx="2" fill="#3b82f6" />
      <rect x="-15" y="31" width="30" height="4" rx="2" fill="#1e293b" />
      <rect x="-12" y="37" width="24" height="4" rx="2" fill="#3b82f6" />
      <path d="M -9,41 L -7,48 L 7,48 L 9,41" fill="#1e293b" />
    </g>
    <text x="112" y="120" text-anchor="middle" font-family="system-ui, sans-serif" font-size="16" font-weight="700" fill="#1e293b">Free Math Sheets</text>
  </g>

  <!-- D: Muted Honey #b8860b / #d4a017 -->
  <g transform="translate(675, 44)">
    <rect x="12" y="0" width="200" height="8" rx="2" fill="#1e293b" />
    <rect x="12" y="0" width="60" height="8" rx="2" fill="#3b82f6" />
    <rect x="72" y="0" width="40" height="8" fill="#b8860b" />

    <g transform="translate(112, 50)">
      <defs>
        <linearGradient id="glowD" x1="0%" y1="0%" x2="0%" y2="100%">
          <stop offset="0%" style="stop-color:#d4a017;stop-opacity:0.25" />
          <stop offset="100%" style="stop-color:#d4a017;stop-opacity:0" />
        </linearGradient>
      </defs>
      <circle cx="0" cy="0" r="50" fill="url(#glowD)" />
      <path d="M -26,18 C -34,8 -36,-6 -32,-16 C -28,-30 -14,-40 0,-40 C 14,-40 28,-30 32,-16 C 36,-6 34,8 26,18 L 22,24 L -22,24 Z"
            fill="none" stroke="#3b82f6" stroke-width="3.5" stroke-linejoin="round" />
      <g fill="none" stroke="#b8860b" stroke-width="2.5" stroke-linecap="round">
        <line x1="-14" y1="-10" x2="14" y2="-10" />
        <path d="M -6,-10 C -6,-2 -8,6 -10,14" />
        <line x1="6" y1="-10" x2="6" y2="14" />
      </g>
      <g stroke="#d4a017" stroke-width="1.5" stroke-linecap="round">
        <line x1="0" y1="-52" x2="0" y2="-58" />
        <line x1="-24" y1="-42" x2="-28" y2="-47" />
        <line x1="24" y1="-42" x2="28" y2="-47" />
        <line x1="-38" y1="-20" x2="-44" y2="-22" />
        <line x1="38" y1="-20" x2="44" y2="-22" />
      </g>
      <rect x="-18" y="24" width="36" height="5" rx="2" fill="#3b82f6" />
      <rect x="-15" y="31" width="30" height="4" rx="2" fill="#1e293b" />
      <rect x="-12" y="37" width="24" height="4" rx="2" fill="#3b82f6" />
      <path d="M -9,41 L -7,48 L 7,48 L 9,41" fill="#1e293b" />
    </g>
    <text x="112" y="120" text-anchor="middle" font-family="system-ui, sans-serif" font-size="16" font-weight="700" fill="#1e293b">Free Math Sheets</text>
  </g>

  <!-- Legend -->
  <g transform="translate(0, 190)">
    <text x="450" y="10" text-anchor="middle" font-family="system-ui, sans-serif" font-size="11" fill="#64748b">Color bars show theme context: dark slate (#1e293b) | primary blue (#3b82f6) | amber variant</text>
    <text x="450" y="28" text-anchor="middle" font-family="system-ui, sans-serif" font-size="11" fill="#64748b">Bulb base uses your theme colors: #3b82f6 (primary) and #1e293b (header bg)</text>
  </g>
</svg>
